<svg xmlns="http://www.w3.org/2000/svg" viewBox="0 0 4362.15 1295.66"><defs><style>.a{fill:#3f48ff;}.b{fill:#231f20;}.c{fill:#fff;}.d,.e,.h{fill:none;}.d{stroke:#fff;stroke-width:2px;}.d,.h{stroke-miterlimit:10;}.f{fill:#5d4bff;}.g{fill:#e95000;}.h{stroke:#e95000;stroke-width:2.28px;}</style></defs><title>proval</title><rect class="a" x="3397.7" y="743.52" width="964.45" height="452.89"/><path class="b" d="M817.4,93H780.25L757.39,48.12a11.52,11.52,0,0,0-20.54,0L714,93H676.84L723.5,1.38h47.24Z" transform="translate(100 733.98)"/><rect class="b" y="777" width="27.06" height="50.23"/><path class="b" d="M108.89,1.38V93.25H81.82V32.35H42.9V50A42.9,42.9,0,0,1,0,92.94V37.31A35.94,35.94,0,0,1,35.94,1.38Z" transform="translate(100 733.98)"/><path class="b" d="M206.07,1.38H131.52V61.15A31.85,31.85,0,0,0,163.36,93s0,0,0,0V90a26.52,26.52,0,0,1,26.52-26.52h16.18a31.07,31.07,0,0,0,31.06-31.06h0A31.07,31.07,0,0,0,206.07,1.38Zm0,45.81h-42.7V17.7h42.7a14.75,14.75,0,0,1,0,29.49Z" transform="translate(100 733.98)"/><rect class="c" x="3752.29" y="924.16" width="31.85" height="45.81"/><path class="c" d="M3757.9,221.24h0a31.07,31.07,0,0,1-31.07,31.07h-16.17a26.52,26.52,0,0,0-26.53,26.52v3h0A31.84,31.84,0,0,1,3652.29,250V236h74.55a14.75,14.75,0,0,0,0-29.49h-42.71V190.18h42.7A31.06,31.06,0,0,1,3757.9,221.24Z" transform="translate(100 733.98)"/><rect class="c" x="3752.29" y="924.16" width="31.85" height="16.32"/><path class="d" d="M3871.16,190.18h-74.54v73.95a17.67,17.67,0,0,0,17.67,17.67h14.18v-3A26.52,26.52,0,0,1,3855,252.31h16.17a31.07,31.07,0,0,0,31.07-31.06h0A31.07,31.07,0,0,0,3871.16,190.18Zm0,45.81h-42.7V206.5h42.7a14.75,14.75,0,0,1,0,29.49Z" transform="translate(100 733.98)"/><path class="b" d="M500.3-204.39a31.19,31.19,0,0,0-12.52-12,.05.05,0,0,0-.08,0,14.76,14.76,0,0,1-14.31,11.18h-2a45.52,45.52,0,0,1-45.51-45.51h0a0,0,0,0,0,0-.05h-27a0,0,0,0,0,0,.05v92.83a.06.06,0,0,0,0,.06h73.75c17.63,0,32.3-14.36,31.79-32A30.81,30.81,0,0,0,500.3-204.39Zm-27.4,30.27H426a.06.06,0,0,1-.06-.06h0a29.43,29.43,0,0,1,29.44-29.43h18.05a14.71,14.71,0,0,1,10.43,4.32,14.62,14.62,0,0,1,3.89,6.93,13.42,13.42,0,0,1,.42,3.13C488.32-180.92,481.2-174.12,472.9-174.12Z" transform="translate(100 733.98)"/><path class="b" d="M504.46-219.93h0a30.84,30.84,0,0,1-4.16,15.53,31.22,31.22,0,0,1-12.59,12,14.62,14.62,0,0,0-3.89-6.93,14.71,14.71,0,0,0-10.43-4.32H398.85v-1.57h74.54a14.73,14.73,0,0,0,14.32-11.25,13.93,13.93,0,0,0,.43-3.5,14.68,14.68,0,0,0-4.32-10.42,14.71,14.71,0,0,0-10.43-4.32H398.85V-251h74.54A31.07,31.07,0,0,1,504.46-219.93Z" transform="translate(100 733.98)"/><path class="b" d="M1202.3,9.42a31.26,31.26,0,0,0-12.52-12,.07.07,0,0,0-.08,0,14.75,14.75,0,0,1-14.31,11.18h-2a45.51,45.51,0,0,1-45.51-45.5h0a.06.06,0,0,0-.05-.06h0a27,27,0,0,0-27,27V56a.06.06,0,0,0,.05.06h73.75c17.63,0,32.3-14.36,31.79-32A30.84,30.84,0,0,0,1202.3,9.42Zm-27.4,30.27H1128s-.06,0-.06,0h0c0-12.32,13.18-22.31,29.44-22.31h18.05a17.31,17.31,0,0,1,10.43,3.28,10.72,10.72,0,0,1,3.89,5.25,7.94,7.94,0,0,1,.42,2.38C1190.32,34.54,1183.2,39.69,1174.9,39.69Z" transform="translate(100 733.98)"/><path class="b" d="M255.12,14v66.3A12.66,12.66,0,0,0,267.78,93h99.76A12.66,12.66,0,0,0,380.2,80.34V14A12.66,12.66,0,0,0,367.54,1.38H267.78A12.66,12.66,0,0,0,255.12,14Zm89.7,57H290.49a6.75,6.75,0,0,1-6.75-6.75V30.1a6.75,6.75,0,0,1,6.75-6.75h54.33a6.75,6.75,0,0,1,6.75,6.75V64.28A6.75,6.75,0,0,1,344.82,71Z" transform="translate(100 733.98)"/><rect class="e" x="481.9" y="464.08" width="139.5" height="130.99"/><polygon class="b" points="657.9 649.98 638.9 649.98 675.4 556.99 694.4 556.99 657.9 649.98"/><polyline class="b" points="772.4 649.98 735.9 556.99 694.4 556.99 730.9 649.98"/><polyline class="b" points="660.9 621.83 753.9 621.83 753.9 609.4 660.9 609.4"/><path class="b" d="M632.73,33.48A56.26,56.26,0,0,0,530,33.18L503.07,93h41.5l4.63-10.4h63.57l4.8,10.4h41.5ZM556.09,67.1l10.46-23.52a15.44,15.44,0,0,1,28.13-.2L605.62,67.1Z" transform="translate(100 733.98)"/><path class="b" d="M2786.08-600.8a60.72,60.72,0,0,0-19.83-20.79,61.08,61.08,0,0,0,19.83-20.82,60.48,60.48,0,0,0,8.14-28.71c1-34.64-27.83-62.86-62.48-62.86h-145c-.06,0-.09.06-.09.12v224.51c0,.06,0,.1.09.1h145c34.65,0,63.48-28.2,62.48-62.83A60.43,60.43,0,0,0,2786.08-600.8Z" transform="translate(100 733.98)"/><path class="c" d="M2734.67-685a57.64,57.64,0,0,1,16.95,40.9.11.11,0,0,1-.1.12h-92.26c-16.32,0-30.31-13.37-29.94-29.68a27.88,27.88,0,0,1,.81-6.17,28.94,28.94,0,0,1,7.66-13.62,28.92,28.92,0,0,1,20.51-8.49h35.47A57.56,57.56,0,0,1,2734.67-685Z" transform="translate(100 733.98)"/><path class="c" d="M2659.26-599.29h92.26a.09.09,0,0,1,.1.1,57.65,57.65,0,0,1-16.95,40.92,57.57,57.57,0,0,1-40.9,16.95H2658.3a28.93,28.93,0,0,1-20.51-8.5,28.94,28.94,0,0,1-7.66-13.62,27.8,27.8,0,0,1-.81-6.17C2629-585.94,2642.94-599.29,2659.26-599.29Z" transform="translate(100 733.98)"/><path class="b" d="M2261.86-600.8A60.72,60.72,0,0,0,2242-621.59a61.08,61.08,0,0,0,19.83-20.82,60.48,60.48,0,0,0,8.14-28.71c1-34.64-27.83-62.86-62.48-62.86h-145c-.06,0-.09.06-.09.12v224.51c0,.06,0,.1.09.1h145c34.65,0,63.48-28.2,62.48-62.83A60.43,60.43,0,0,0,2261.86-600.8Z" transform="translate(100 733.98)"/><path class="c" d="M2210.45-685a57.64,57.64,0,0,1,17,40.9.11.11,0,0,1-.1.12H2135c-16.32,0-30.31-13.37-29.94-29.68a27.88,27.88,0,0,1,.81-6.17,28.94,28.94,0,0,1,7.66-13.62,28.92,28.92,0,0,1,20.51-8.49h35.47A57.56,57.56,0,0,1,2210.45-685Z" transform="translate(100 733.98)"/><path class="c" d="M2135-599.29h92.26a.09.09,0,0,1,.1.1,57.65,57.65,0,0,1-17,40.92,57.57,57.57,0,0,1-40.9,16.95h-35.47a28.93,28.93,0,0,1-20.51-8.5,28.94,28.94,0,0,1-7.66-13.62,27.8,27.8,0,0,1-.81-6.17C2104.73-585.94,2118.72-599.29,2135-599.29Z" transform="translate(100 733.98)"/><rect class="f" x="2807.57" y="995.66" width="300" height="300"/><path class="g" d="M2011.4-300.1a88.67,88.67,0,0,0-88.67,88.67V-74.17A105.88,105.88,0,0,0,2028-169.1h96.6v95.69h66.78V-223.68h0V-300.1Z" transform="translate(100 733.98)"/><path class="c" d="M2103.39-198.68h-76.72c-.05,0-.08-.06-.08-.11,0-16,5.38-30.43,14.08-40.91s20.73-16.94,34-16.94h29.5c6.65,0,12.68,3.25,17,8.49a30.93,30.93,0,0,1,6.38,13.62,32.86,32.86,0,0,1,.66,6.18C2128.6-212,2117-198.68,2103.39-198.68Z" transform="translate(100 733.98)"/><path class="h" d="M2420.91-300.1a148.18,148.18,0,0,0-148.18,148.18v77.75A105.88,105.88,0,0,0,2378-169.1h96.6v95.69h66.78V-223.68h0V-300.1Z" transform="translate(100 733.98)"/><path class="h" d="M2453.39-198.68h-76.72c-.05,0-.08-.06-.08-.11,0-16,5.38-30.43,14.08-40.91s20.73-16.94,34-16.94h29.5c6.65,0,12.68,3.25,17,8.49a30.93,30.93,0,0,1,6.38,13.62,32.86,32.86,0,0,1,.66,6.18C2478.6-212,2467-198.68,2453.39-198.68Z" transform="translate(100 733.98)"/><path class="h" d="M3761-413.18a141.9,141.9,0,0,0-57-54.69.26.26,0,0,0-.38.17,67.19,67.19,0,0,1-65.2,50.92h-9c-114.48,0-207.29-92.8-207.29-207.28h0a.26.26,0,0,0-.26-.27H3299.08a.27.27,0,0,0-.27.27V-201.2a.27.27,0,0,0,.27.26h336c80.32,0,147.14-65.39,144.81-145.68A140.33,140.33,0,0,0,3761-413.18Zm-124.81,137.9H3422.35a.27.27,0,0,1-.27-.27h0a134.08,134.08,0,0,1,134.08-134.08h82.22a67,67,0,0,1,47.52,19.68,67.1,67.1,0,0,1,17.76,31.57,65.36,65.36,0,0,1,1.9,14.3C3706.44-306.25,3674-275.28,3636.16-275.28Z" transform="translate(100 733.98)"/><path class="h" d="M3779.92-484v0a140.53,140.53,0,0,1-19,70.75,142,142,0,0,1-57.31,54.8,67.1,67.1,0,0,0-17.76-31.57,67,67,0,0,0-47.52-19.68H3298.81v-7.15h339.57A67.18,67.18,0,0,0,3703.66-468a65.34,65.34,0,0,0,1.92-15.94,66.91,66.91,0,0,0-19.68-47.47,67,67,0,0,0-47.52-19.68H3298.81v-74.35h339.57A141.53,141.53,0,0,1,3779.92-484Z" transform="translate(100 733.98)"/><rect class="e" x="3321.62" y="22.4" width="635.5" height="596.75"/><path class="h" d="M3761-413.18a141.9,141.9,0,0,0-57-54.69.26.26,0,0,0-.38.17,67.19,67.19,0,0,1-65.2,50.92h-9c-114.48,0-207.29-92.8-207.29-207.28h0a.26.26,0,0,0-.26-.27H3299.08a.27.27,0,0,0-.27.27V-201.2a.27.27,0,0,0,.27.26h336c80.32,0,147.14-65.39,144.81-145.68A140.33,140.33,0,0,0,3761-413.18Zm-124.81,137.9H3422.35a.27.27,0,0,1-.27-.27h0a134.08,134.08,0,0,1,134.08-134.08h82.22a67,67,0,0,1,47.52,19.68,67.1,67.1,0,0,1,17.76,31.57,65.36,65.36,0,0,1,1.9,14.3C3706.44-306.25,3674-275.28,3636.16-275.28Z" transform="translate(100 733.98)"/><path class="h" d="M3779.92-484v0a140.53,140.53,0,0,1-19,70.75,142,142,0,0,1-57.31,54.8,67.1,67.1,0,0,0-17.76-31.57,67,67,0,0,0-47.52-19.68H3298.81v-7.15h339.57A67.18,67.18,0,0,0,3703.66-468a65.34,65.34,0,0,0,1.92-15.94,66.91,66.91,0,0,0-19.68-47.47,67,67,0,0,0-47.52-19.68H3298.81v-74.35h339.57A141.53,141.53,0,0,1,3779.92-484Z" transform="translate(100 733.98)"/><rect class="e" x="3321.62" y="22.4" width="635.5" height="596.75"/><path class="b" d="M489.51,56.1a25.3,25.3,0,0,0-8.25-8.65,25.51,25.51,0,0,0,8.25-8.66,25.2,25.2,0,0,0,3.38-11.94c.42-14.41-11.58-26.14-26-26.14H397.62s0,0,0,.05V94.13a0,0,0,0,0,0,0H466.9c14.41,0,26.41-11.73,26-26.13A25.17,25.17,0,0,0,489.51,56.1Z" transform="translate(100 733.98)"/><path class="c" d="M468.12,21.09a24,24,0,0,1,7.05,17,0,0,0,0,1,0,0H436.76c-6.79,0-12.61-5.56-12.45-12.34a11.53,11.53,0,0,1,.34-2.57,12,12,0,0,1,11.71-9.19h14.75A24,24,0,0,1,468.12,21.09Z" transform="translate(100 733.98)"/><path class="c" d="M436.76,56.72h38.37a0,0,0,0,1,0,.05,24.07,24.07,0,0,1-24.06,24.06H436.36a12,12,0,0,1-11.71-9.2,11.36,11.36,0,0,1-.34-2.56C424.15,62.27,430,56.72,436.76,56.72Z" transform="translate(100 733.98)"/></svg>